<svg width="1615" height="385" viewBox="0 0 1615 385" fill="none" xmlns="http://www.w3.org/2000/svg">
<path d="M237.49 323.323L255.179 373.744C257.537 380.497 263.898 385 271.045 385H326.611C331.721 385 335.259 379.89 333.437 375.102L194.002 10.4701C191.572 4.14516 185.533 0 178.815 0H155.123C148.369 0 142.33 4.14516 139.936 10.4701L0.501263 375.102C-1.35691 379.89 2.18077 385 7.32649 385H62.8931C70.04 385 76.4006 380.497 78.7591 373.744L96.4475 323.323L120.925 253.427L166.951 122.068L212.977 253.427L237.49 323.323Z" fill="url(#paint0_linear_3600_125)"/>
<path d="M687.52 249.174C687.52 270.186 680.981 286.409 667.938 297.88C654.859 309.386 636.42 315.104 612.586 315.104H556.197V69.896H612.586C636.42 69.896 654.859 75.6493 667.938 87.1199C680.981 98.5906 687.52 114.85 687.52 135.826V249.174ZM693.202 16.1519C670.511 5.39587 643.103 0 610.978 0H497.557C489.875 0 483.621 6.21775 483.621 13.9363V371.099C483.621 378.782 489.875 385 497.557 385H610.728C643.746 385 671.619 379.283 694.417 367.812C717.18 356.341 734.261 340.261 745.624 319.606C757.023 298.952 762.705 274.76 762.705 247.066V137.97C762.705 108.846 756.809 83.9396 744.981 63.2852C733.153 42.6309 715.893 26.9078 693.202 16.1519Z" fill="url(#paint1_linear_3600_125)"/>
<path d="M1541.43 269.293C1541.43 283.765 1536.89 295.021 1527.78 303.062C1518.7 311.102 1505.84 315.104 1489.26 315.104H1407.18V222.409H1489.26C1500.19 222.409 1509.59 224.232 1517.45 227.841C1525.31 231.486 1531.28 236.739 1535.36 243.6C1539.39 250.497 1541.43 258.787 1541.43 268.507V269.293ZM1489.26 69.896C1504.27 69.896 1515.88 73.3265 1524.1 80.2232C1532.28 87.1199 1536.39 96.7324 1536.39 109.096C1536.39 122.854 1532.28 133.539 1524.1 141.114C1515.88 148.726 1504.27 152.513 1489.26 152.513H1407.18V69.896H1489.26ZM1605.11 234.595C1598.86 221.731 1589.67 211.26 1577.56 203.22C1572.2 199.647 1566.34 196.645 1560.01 194.215C1553.83 191.857 1553.4 183.173 1559.51 180.636C1565.01 178.385 1570.09 175.705 1574.81 172.632C1586.1 165.235 1594.71 155.73 1600.61 144.187C1606.54 132.61 1609.47 119.316 1609.47 104.308C1609.47 82.4387 1604.89 63.6783 1595.71 48.0625C1586.53 32.4466 1573.13 20.5114 1555.47 12.2926C1537.82 4.10942 1516.52 0 1491.65 0H1348.54C1340.85 0 1334.64 6.21774 1334.64 13.9006V371.099C1334.64 378.782 1340.85 385 1348.54 385H1496.16C1521.03 385 1542.36 380.891 1560.08 372.707C1577.84 364.489 1591.35 352.518 1600.61 336.83C1609.86 321.107 1614.51 302.204 1614.51 280.156V279.37C1614.51 262.396 1611.36 247.495 1605.11 234.595Z" fill="url(#paint2_linear_3600_125)"/>
<path d="M1177.73 315.104H1059.28C1035.44 315.104 1017 309.351 1003.92 297.88C990.845 286.409 984.342 270.186 984.342 249.174V135.826C984.342 114.814 990.845 98.5906 1003.92 87.1199C1017 75.6492 1035.44 69.896 1059.28 69.896H1177.73C1183.52 69.896 1188.21 65.2149 1188.21 59.3902V10.5058C1188.21 4.68118 1183.52 0 1177.73 0H1061.13C1028.12 0 1000.21 5.71747 977.445 17.2239C954.682 28.6945 937.601 44.7392 926.202 65.3935C914.803 86.0479 909.121 110.24 909.121 137.97V247.066C909.121 276.189 915.053 301.06 926.881 321.715C938.709 342.369 955.969 358.092 978.624 368.848C1001.32 379.64 1028.72 385 1060.85 385H1177.73C1183.52 385 1188.21 380.319 1188.21 374.494V325.61C1188.21 319.821 1183.52 315.104 1177.73 315.104Z" fill="url(#paint3_linear_3600_125)"/>
<defs>
<linearGradient id="paint0_linear_3600_125" x1="166.961" y1="0" x2="166.961" y2="385" gradientUnits="userSpaceOnUse">
<stop stop-color="white" stop-opacity="0.1"/>
<stop offset="0.606101" stop-color="#DDDDDD" stop-opacity="0.33433"/>
<stop offset="1" stop-color="#999999" stop-opacity="0.7"/>
</linearGradient>
<linearGradient id="paint1_linear_3600_125" x1="623.163" y1="0" x2="623.163" y2="385" gradientUnits="userSpaceOnUse">
<stop stop-color="white" stop-opacity="0.1"/>
<stop offset="0.606101" stop-color="#DDDDDD" stop-opacity="0.33433"/>
<stop offset="1" stop-color="#999999" stop-opacity="0.7"/>
</linearGradient>
<linearGradient id="paint2_linear_3600_125" x1="1474.57" y1="0" x2="1474.57" y2="385" gradientUnits="userSpaceOnUse">
<stop stop-color="white" stop-opacity="0.1"/>
<stop offset="0.606101" stop-color="#DDDDDD" stop-opacity="0.33433"/>
<stop offset="1" stop-color="#999999" stop-opacity="0.7"/>
</linearGradient>
<linearGradient id="paint3_linear_3600_125" x1="1048.66" y1="0" x2="1048.66" y2="385" gradientUnits="userSpaceOnUse">
<stop stop-color="white" stop-opacity="0.1"/>
<stop offset="0.606101" stop-color="#DDDDDD" stop-opacity="0.33433"/>
<stop offset="1" stop-color="#999999" stop-opacity="0.7"/>
</linearGradient>
</defs>
</svg>
